<svg width="18" height="17" viewBox="0 0 18 17" fill="none" xmlns="http://www.w3.org/2000/svg">
<path d="M9 0.635498C10.5368 0.635498 11.9582 0.940255 13.2642 1.54977C14.5702 2.15928 15.6027 2.98811 16.3616 4.03621C17.1205 5.08428 17.5 6.22754 17.5 7.46593C17.5 8.70429 17.1205 9.84914 16.3616 10.9005C15.6027 11.9518 14.5718 12.7823 13.269 13.3918C11.9661 14.0013 10.5431 14.306 9 14.306C8.51303 14.306 8.01021 14.2705 7.49163 14.1996C5.24013 15.7927 4.04168 16.599 3.89621 16.6183C3.82664 16.6441 3.76021 16.6409 3.69698 16.6086C3.67167 16.5893 3.65271 16.5635 3.64006 16.5312C3.6274 16.499 3.62109 16.47 3.62109 16.4441V16.4055C3.65906 16.1539 3.94679 15.1058 4.48438 13.2611C3.26377 12.642 2.29455 11.8212 1.57673 10.7989C0.85891 9.77661 0.5 8.66561 0.5 7.46593C0.5 6.22754 0.879465 5.08428 1.63839 4.03621C2.39732 2.98811 3.42978 2.15928 4.73577 1.54977C6.04175 0.940255 7.46316 0.635498 9 0.635498Z" fill="white"/>
</svg>
