<svg width="24" height="24" viewBox="0 0 24 24" fill="none" xmlns="http://www.w3.org/2000/svg">
<path d="M2.75773 20.5842C2.61009 20.5333 2.482 20.4376 2.39133 20.3105C2.30066 20.1834 2.25193 20.0311 2.25195 19.8749C2.25195 16.4484 2.94008 13.7081 4.29805 11.7295C5.93867 9.33884 8.52664 8.05165 12.002 7.89181V4.12493C12.002 3.97808 12.0451 3.83445 12.126 3.71188C12.2069 3.58931 12.322 3.49318 12.457 3.43543C12.592 3.37768 12.741 3.36084 12.8856 3.387C13.0301 3.41316 13.1637 3.48117 13.2699 3.58259L21.5199 11.4576C21.5932 11.5276 21.6516 11.6118 21.6915 11.705C21.7313 11.7982 21.7519 11.8985 21.7519 11.9999C21.7519 12.1013 21.7313 12.2016 21.6915 12.2949C21.6516 12.3881 21.5932 12.4722 21.5199 12.5423L13.2699 20.4173C13.1637 20.5187 13.0301 20.5867 12.8856 20.6129C12.741 20.639 12.592 20.6222 12.457 20.5644C12.322 20.5067 12.2069 20.4106 12.126 20.288C12.0451 20.1654 12.002 20.0218 12.002 19.8749V16.1357C9.89258 16.1995 8.29883 16.5412 7.02992 17.197C5.65883 17.9057 4.66461 18.9646 3.59305 20.3376C3.49692 20.4607 3.36476 20.5507 3.21501 20.5951C3.06527 20.6394 2.9054 20.6359 2.75773 20.5851V20.5842Z" fill="#484B4D"/>
</svg>
