<svg width="1000" height="1001" viewBox="0 0 1000 1001" fill="none" xmlns="http://www.w3.org/2000/svg">
<g clip-path="url(#clip0_61_166)">
<circle cx="500" cy="500.78" r="500" fill="#851F20"/>
<path d="M346.426 742.209C364.579 742.209 379.451 738.009 391.03 729.609C402.609 721.208 409.528 709.298 411.8 693.85H339.953V635.279H482.97V673.08C482.97 693.965 479.396 712.361 472.247 728.243C465.098 744.137 455.332 757.413 442.962 768.086C430.592 778.759 416.115 786.865 399.545 792.431C382.974 797.997 365.37 800.78 346.77 800.78C326.115 800.78 306.877 797.257 289.055 790.223C271.234 783.189 255.736 773.371 242.574 760.771C229.4 748.171 219.021 733.132 211.413 715.655C203.804 698.178 200 678.99 200 658.105C200 637.219 203.804 618.044 211.413 600.555C219.021 583.078 229.464 568.039 242.74 555.439C256.017 542.839 271.732 533.021 289.898 525.987C308.051 518.953 327.583 515.429 348.468 515.429C376.617 515.429 400.911 521.162 421.336 532.626C441.762 544.09 460.157 561.056 476.498 583.537L429.851 622.704C421.451 607.717 410.383 595.806 396.647 586.946C382.911 578.086 366.506 573.669 347.447 573.669C337.234 573.669 327.468 575.712 318.162 579.797C308.855 583.882 300.736 589.614 293.817 596.993C286.885 604.372 281.332 613.232 277.132 623.559C272.932 633.887 270.838 645.415 270.838 658.118C270.838 670.82 272.766 682.348 276.634 692.676C280.489 703.004 285.826 711.863 292.643 719.242C299.447 726.621 307.451 732.302 316.655 736.273C325.847 740.243 335.779 742.234 346.451 742.234L346.426 742.209Z" fill="white"/>
<path d="M663.455 742.209C681.609 742.209 696.481 738.009 708.06 729.609C719.638 721.208 726.557 709.298 728.83 693.85H656.983V635.279H800V673.08C800 693.965 796.426 712.361 789.277 728.243C782.128 744.137 772.362 757.413 759.992 768.086C747.621 778.759 733.145 786.865 716.574 792.431C700.004 797.997 682.4 800.78 663.8 800.78C643.145 800.78 623.906 797.257 606.085 790.223C588.264 783.189 572.766 773.371 559.604 760.771C546.43 748.171 536.051 733.132 528.443 715.655C520.834 698.178 517.03 678.99 517.03 658.105C517.03 637.219 520.834 618.044 528.443 600.555C536.051 583.078 546.494 568.039 559.77 555.439C573.047 542.839 588.762 533.021 606.928 525.987C625.081 518.953 644.613 515.429 665.498 515.429C693.647 515.429 717.94 521.162 738.366 532.626C758.792 544.09 777.187 561.056 793.528 583.537L746.881 622.704C738.481 607.717 727.413 595.806 713.677 586.946C699.94 578.086 683.536 573.669 664.477 573.669C654.264 573.669 644.498 575.712 635.191 579.797C625.885 583.882 617.766 589.614 610.847 596.993C603.915 604.372 598.362 613.232 594.162 623.559C589.962 633.887 587.868 645.415 587.868 658.118C587.868 670.82 589.796 682.348 593.664 692.676C597.519 703.004 602.855 711.863 609.672 719.242C616.477 726.621 624.481 732.302 633.685 736.273C642.877 740.243 652.809 742.234 663.481 742.234L663.455 742.209Z" fill="white"/>
<path d="M301.298 207.585L367.017 400.661L432.736 207.585H503.562L411.621 478.982H322.4L230.46 207.585H301.285H301.298Z" fill="white"/>
<path d="M561.813 390.448C573.838 400.661 587.919 408.959 604.043 415.304C620.153 421.661 636.736 424.725 653.753 424.495C665.102 424.266 673.387 422.568 678.609 419.389C683.83 416.21 686.434 411.448 686.434 405.091C686.434 397.597 683.421 391.584 677.409 387.039C671.396 382.495 661.349 378.307 647.268 374.439C635.23 371.03 622.86 367.341 610.158 363.371C597.443 359.4 585.864 354.128 575.421 347.541C564.979 340.953 556.4 332.553 549.711 322.34C543.009 312.127 539.664 298.965 539.664 282.841C539.664 268.543 542.447 256.224 548.013 245.896C553.579 235.568 561.175 227.053 570.826 220.351C580.477 213.661 591.711 208.721 604.541 205.542C617.358 202.363 630.928 200.78 645.238 200.78C655.221 200.78 664.707 201.457 673.668 202.823C682.63 204.189 691.49 206.282 700.234 209.116C708.966 211.963 717.596 215.538 726.111 219.84C734.626 224.155 743.421 229.376 752.498 235.504L724.579 289.99C713.677 281.59 701.651 275.003 688.49 270.241C675.315 265.479 661.477 262.862 646.949 262.403C642.187 262.186 637.694 262.352 633.494 262.913C629.294 263.488 625.604 264.509 622.426 265.977C619.247 267.458 616.694 269.335 614.766 271.594C612.838 273.867 611.868 276.701 611.868 280.109C611.868 283.518 612.379 286.531 613.4 289.135C614.421 291.752 616.4 294.191 619.362 296.45C622.311 298.723 626.562 300.995 632.128 303.267C637.694 305.54 645.124 307.927 654.43 310.416C668.958 314.502 682.63 318.753 695.46 323.183C708.277 327.613 719.473 333.179 728.996 339.868C738.532 346.57 746.026 354.907 751.464 364.903C756.915 374.899 759.634 387.499 759.634 402.704C759.634 416.785 756.915 429.04 751.464 439.483C746.013 449.926 738.404 458.556 728.651 465.36C718.885 472.177 707.307 477.284 693.915 480.68C680.511 484.088 665.881 485.786 649.987 485.786C627.29 485.786 606.111 482.378 586.477 475.573C566.843 468.756 548.626 459.335 531.826 447.309L561.787 390.435L561.813 390.448Z" fill="white"/>
</g>
<defs>
<clipPath id="clip0_61_166">
<rect width="1000" height="1000" fill="white" transform="translate(0 0.780029)"/>
</clipPath>
</defs>
</svg>
