<svg width="1000" height="1000" viewBox="0 0 1000 1000" fill="none" xmlns="http://www.w3.org/2000/svg">
<rect width="1000" height="1000" fill="#851F20"/>
<path d="M269.638 862.143C296.868 862.143 319.177 855.843 336.545 843.242C353.913 830.642 364.292 812.776 367.7 789.605H259.93V701.748H474.455V758.449C474.455 789.778 469.094 817.372 458.37 841.194C447.647 865.035 432.998 884.95 414.443 900.959C395.887 916.967 374.172 929.127 349.317 937.477C324.462 945.826 298.055 950 270.155 950C239.172 950 210.315 944.715 183.583 934.164C156.851 923.612 133.604 908.887 113.862 889.986C94.1 871.086 78.5319 848.528 67.1192 822.312C55.7064 796.097 50 767.315 50 735.987C50 704.659 55.7064 675.896 67.1192 649.662C78.5319 623.446 94.1957 600.888 114.111 581.988C134.026 563.088 157.598 548.362 184.847 537.81C212.077 527.259 241.374 521.974 272.702 521.974C314.926 521.974 351.366 530.572 382.004 547.768C412.643 564.964 440.236 590.414 464.747 624.136L394.777 682.886C382.177 660.405 365.574 642.538 344.97 629.249C324.366 615.959 299.76 609.333 271.17 609.333C255.851 609.333 241.202 612.397 227.243 618.525C213.283 624.653 201.104 633.251 190.726 644.319C180.328 655.387 171.998 668.677 165.698 684.169C159.398 699.661 156.257 716.953 156.257 736.006C156.257 755.06 159.149 772.352 164.951 787.844C170.734 803.335 178.738 816.625 188.964 827.693C199.17 838.762 211.177 847.283 224.983 853.239C238.77 859.194 253.668 862.181 269.677 862.181L269.638 862.143Z" fill="white"/>
<path d="M745.183 862.143C772.413 862.143 794.721 855.843 812.089 843.242C829.457 830.642 839.836 812.776 843.245 789.605H735.474V701.748H950V758.449C950 789.778 944.638 817.372 933.915 841.194C923.192 865.035 908.543 884.95 889.987 900.959C871.432 916.967 849.717 929.127 824.862 937.477C800.006 945.826 773.6 950 745.7 950C714.717 950 685.86 944.715 659.128 934.164C632.396 923.612 609.149 908.887 589.406 889.986C569.645 871.086 554.077 848.528 542.664 822.312C531.251 796.097 525.545 767.315 525.545 735.987C525.545 704.659 531.251 675.896 542.664 649.662C554.077 623.446 569.74 600.888 589.655 581.988C609.57 563.088 633.143 548.362 660.392 537.81C687.621 527.259 716.919 521.974 748.247 521.974C790.47 521.974 826.911 530.572 857.549 547.768C888.187 564.964 915.781 590.414 940.292 624.136L870.321 682.886C857.721 660.405 841.119 642.538 820.515 629.249C799.911 615.959 775.304 609.333 746.715 609.333C731.396 609.333 716.747 612.397 702.787 618.525C688.828 624.653 676.649 633.251 666.27 644.319C655.872 655.387 647.543 668.677 641.243 684.169C634.943 699.661 631.802 716.953 631.802 736.006C631.802 755.06 634.694 772.352 640.496 787.844C646.279 803.335 654.283 816.625 664.509 827.693C674.715 838.762 686.721 847.283 700.528 853.239C714.315 859.194 729.213 862.181 745.221 862.181L745.183 862.143Z" fill="white"/>
<path d="M201.947 60.2068L300.526 349.822L399.104 60.2068H505.343L367.432 467.303H233.6L95.6895 60.2068H201.928H201.947Z" fill="white"/>
<path d="M592.719 334.502C610.757 349.821 631.879 362.268 656.064 371.786C680.23 381.322 705.104 385.918 730.63 385.573C747.653 385.229 760.081 382.682 767.913 377.913C775.745 373.145 779.651 366.003 779.651 356.466C779.651 345.225 775.132 336.206 766.113 329.389C757.094 322.572 742.023 316.291 720.902 310.489C702.845 305.376 684.289 299.842 665.236 293.886C646.164 287.931 628.796 280.022 613.132 270.141C597.468 260.26 584.6 247.66 574.566 232.34C564.513 217.021 559.496 197.278 559.496 173.092C559.496 151.645 563.67 133.166 572.019 117.674C580.368 102.182 591.762 89.4093 606.238 79.3559C620.715 69.3216 637.566 61.9109 656.811 57.1427C676.036 52.3745 696.391 50 717.857 50C732.832 50 747.06 51.0149 760.502 53.0638C773.945 55.1128 787.234 58.2533 800.351 62.5045C813.449 66.7748 826.394 72.1366 839.166 78.59C851.938 85.0624 865.132 92.8945 878.747 102.086L836.868 183.816C820.515 171.215 802.477 161.334 782.734 154.192C762.972 147.049 742.215 143.123 720.423 142.434C713.281 142.108 706.54 142.357 700.24 143.2C693.94 144.062 688.406 145.594 683.638 147.796C678.87 150.017 675.04 152.832 672.149 156.221C669.257 159.63 667.802 163.881 667.802 168.994C667.802 174.107 668.568 178.626 670.1 182.533C671.632 186.458 674.6 190.116 679.043 193.505C683.466 196.914 689.843 200.322 698.192 203.731C706.54 207.14 717.685 210.721 731.645 214.455C753.436 220.582 773.945 226.959 793.189 233.604C812.415 240.249 829.209 248.598 843.494 258.632C857.798 268.685 869.038 281.19 877.196 296.184C885.372 311.178 889.451 330.078 889.451 352.885C889.451 374.007 885.372 392.39 877.196 408.055C869.019 423.719 857.606 436.664 842.977 446.87C828.328 457.096 810.96 464.756 790.872 469.849C770.766 474.962 748.821 477.509 724.981 477.509C690.934 477.509 659.166 472.396 629.715 462.19C600.264 451.964 572.938 437.832 547.738 419.793L592.681 334.483L592.719 334.502Z" fill="white"/>
</svg>
