<svg width="33" height="32" viewBox="0 0 33 32" fill="none" xmlns="http://www.w3.org/2000/svg">
<path d="M17.2406 18.666C16.0554 12.266 10.8208 5.33268 8.35169 2.66602C9.09243 4.66602 10.7221 9.19935 11.3147 11.3327C11.9072 13.466 12.0554 16.666 12.0554 17.9993C11.4628 16.3993 5.88255 12.4438 3.1665 10.666C3.41342 11.5549 4.64799 14.266 7.61095 17.9993L11.3147 25.3327L16.4998 29.3327C17.2406 28.4438 18.4258 25.066 17.2406 18.666Z" stroke="#9E2426" stroke-width="2" stroke-linecap="round" stroke-linejoin="round"/>
<path d="M20.9443 11.9993C19.7591 14.1327 19.4628 17.3327 19.4628 18.666C18.969 17.3327 18.0276 14.3993 18.2127 13.3327C18.4442 11.9993 19.4628 9.99935 20.9443 7.99935C22.1295 6.39935 23.9072 4.22157 24.648 3.33268C23.9072 5.33268 22.1295 9.86602 20.9443 11.9993Z" stroke="#9E2426" stroke-width="2" stroke-linecap="round" stroke-linejoin="round"/>
<path d="M24.648 21.9993L20.9443 25.3327C21.1912 22.8882 21.9813 17.466 23.1665 15.3327C24.3517 13.1993 28.1048 11.3327 29.8332 10.666C28.8455 11.9993 26.7221 15.066 26.1295 16.666C25.5369 18.266 24.8949 20.8882 24.648 21.9993Z" stroke="#9E2426" stroke-width="2" stroke-linecap="round" stroke-linejoin="round"/>
</svg>
