<svg width="71" height="70" viewBox="0 0 71 70" fill="none" xmlns="http://www.w3.org/2000/svg">
<rect x="1.5" y="1" width="68" height="68" rx="34" fill="white"/>
<rect x="1.5" y="1" width="68" height="68" rx="34" stroke="#9E2426" stroke-width="2"/>
<path d="M36.2407 37.667C35.0556 31.267 29.821 24.3337 27.3519 21.667C28.0926 23.667 29.7222 28.2003 30.3148 30.3337C30.9074 32.467 31.0556 35.667 31.0556 37.0003C30.463 35.4003 24.8827 31.4448 22.1667 29.667C22.4136 30.5559 23.6482 33.267 26.6111 37.0003L30.3148 44.3337L35.5 48.3337C36.2407 47.4448 37.4259 44.067 36.2407 37.667Z" stroke="#9E2426" stroke-width="2" stroke-linecap="round" stroke-linejoin="round"/>
<path d="M39.9445 31.0003C38.7593 33.1337 38.463 36.3337 38.463 37.667C37.9691 36.3337 37.0278 33.4003 37.2129 32.3337C37.4443 31.0003 38.463 29.0003 39.9445 27.0003C41.1296 25.4003 42.9074 23.2225 43.6482 22.3337C42.9074 24.3337 41.1296 28.867 39.9445 31.0003Z" stroke="#9E2426" stroke-width="2" stroke-linecap="round" stroke-linejoin="round"/>
<path d="M43.6482 41.0003L39.9445 44.3337C40.1914 41.8892 40.9815 36.467 42.1667 34.3337C43.3519 32.2003 47.1049 30.3337 48.8333 29.667C47.8457 31.0003 45.7222 34.067 45.1296 35.667C44.537 37.267 43.8951 39.8892 43.6482 41.0003Z" stroke="#9E2426" stroke-width="2" stroke-linecap="round" stroke-linejoin="round"/>
</svg>
