<svg width="71" height="70" viewBox="0 0 71 70" fill="none" xmlns="http://www.w3.org/2000/svg">
<rect x="1.5" y="1" width="68" height="68" rx="34" fill="white"/>
<rect x="1.5" y="1" width="68" height="68" rx="34" stroke="#70191B" stroke-width="2"/>
<path d="M48.8334 21.6673L48.8334 40.334C48.8334 44.7523 45.2517 48.334 40.8334 48.334L22.1667 48.334" stroke="#70191B" stroke-width="2" stroke-linecap="round"/>
<path d="M48.8334 21.667L44.8334 25.667" stroke="#70191B" stroke-width="2" stroke-linecap="round"/>
<path d="M44.8334 25.6673L44.8334 38.334C44.8334 41.6477 42.1471 44.334 38.8334 44.334L26.1667 44.334" stroke="#70191B" stroke-width="2" stroke-linecap="round"/>
<path d="M23.5 36.3333L23.5 30C23.5 26.134 26.634 23 30.5 23L35.5 23" stroke="#70191B" stroke-width="2" stroke-linecap="round"/>
<path d="M39.5 28.3333L28.8333 39" stroke="#70191B" stroke-width="2" stroke-linecap="round"/>
<path d="M26.1667 44.334L22.1667 48.334" stroke="#70191B" stroke-width="2" stroke-linecap="round"/>
</svg>
