<svg width="32" height="32" viewBox="0 0 32 32" fill="none" xmlns="http://www.w3.org/2000/svg">
<path d="M13.2437 6.65383L13.8633 7.9758C14.2519 8.80462 15.0846 9.33398 16 9.33398C16.9154 9.33398 17.7481 8.80462 18.1367 7.9758L18.7563 6.65383C19.3353 5.41869 18.4339 4.00065 17.0698 4.00065L14.9302 4.00065C13.5661 4.00065 12.6647 5.41868 13.2437 6.65383Z" stroke="#555555" stroke-width="2" stroke-linecap="round"/>
<path d="M19.6393 25.6912L17.7316 13.482C17.5983 12.6289 16.8635 12 16 12C15.1365 12 14.4017 12.6289 14.2684 13.482L12.3607 25.6912C12.1712 26.9042 13.1091 28 14.3368 28H17.6632C18.8909 28 19.8288 26.9042 19.6393 25.6912Z" stroke="#555555" stroke-width="2" stroke-linecap="round"/>
<path d="M29.3332 8C27.5668 9.0776 18.7352 11.2328 18.7352 11.2328C18.7352 11.2328 17.9934 11.4483 21.3847 14.4656C24.7761 17.4829 27.3902 15.3636 28.2734 13.9268C27.2892 13.1429 27.2892 13.1429 26.1538 12.3104C28.2734 11.4286 29.1565 9.4368 29.3332 8Z" stroke="#555555" stroke-width="2" stroke-linecap="round" stroke-linejoin="round"/>
<path d="M2.66634 8C4.43267 9.0776 13.2643 11.2328 13.2643 11.2328C13.2643 11.2328 14.0061 11.4483 10.6148 14.4656C7.22346 17.4829 4.6093 15.3636 3.72614 13.9268C4.71034 13.1429 4.71034 13.1429 5.84573 12.3104C3.72614 11.4286 2.84297 9.4368 2.66634 8Z" stroke="#555555" stroke-width="2" stroke-linecap="round" stroke-linejoin="round"/>
</svg>
