<svg width="70" height="70" viewBox="0 0 70 70" fill="none" xmlns="http://www.w3.org/2000/svg">
<rect x="1" y="1" width="68" height="68" rx="34" fill="white"/>
<rect x="1" y="1" width="68" height="68" rx="34" stroke="#555555" stroke-width="2"/>
<path d="M32.2437 25.6529L32.8633 26.9748C33.2519 27.8036 34.0846 28.333 35 28.333C35.9154 28.333 36.7481 27.8036 37.1367 26.9748L37.7563 25.6529C38.3353 24.4177 37.4339 22.9997 36.0698 22.9997L33.9302 22.9997C32.5661 22.9997 31.6647 24.4177 32.2437 25.6529Z" stroke="#555555" stroke-width="2" stroke-linecap="round"/>
<path d="M38.6393 44.6912L36.7316 32.482C36.5983 31.6289 35.8635 31 35 31C34.1365 31 33.4017 31.6289 33.2684 32.482L31.3607 44.6912C31.1712 45.9042 32.1091 47 33.3368 47H36.6632C37.8909 47 38.8288 45.9042 38.6393 44.6912Z" stroke="#555555" stroke-width="2" stroke-linecap="round"/>
<path d="M48.3334 27C46.567 28.0776 37.7354 30.2328 37.7354 30.2328C37.7354 30.2328 36.9935 30.4483 40.3849 33.4656C43.7762 36.4829 46.3904 34.3636 47.2736 32.9268C46.2894 32.1429 46.2894 32.1429 45.154 31.3104C47.2736 30.4286 48.1567 28.4368 48.3334 27Z" stroke="#555555" stroke-width="2" stroke-linecap="round" stroke-linejoin="round"/>
<path d="M21.6667 27C23.433 28.0776 32.2647 30.2328 32.2647 30.2328C32.2647 30.2328 33.0065 30.4483 29.6152 33.4656C26.2238 36.4829 23.6097 34.3636 22.7265 32.9268C23.7107 32.1429 23.7107 32.1429 24.8461 31.3104C22.7265 30.4286 21.8433 28.4368 21.6667 27Z" stroke="#555555" stroke-width="2" stroke-linecap="round" stroke-linejoin="round"/>
</svg>
