<svg width="30" height="30" viewBox="0 0 30 30" fill="none" xmlns="http://www.w3.org/2000/svg">
<rect x="0.5" y="0.5" width="29" height="29" rx="4.5" fill="white" stroke="#D9D9D9"/>
<path fill-rule="evenodd" clip-rule="evenodd" d="M21.8794 7C21.5805 7 21.2937 7.11871 21.0823 7.33004L21.4364 7.68439L21.0821 7.33016L20.196 8.21629C20.0004 8.41189 20.0004 8.72901 20.1959 8.92465L21.0821 9.81117C21.176 9.90516 21.3035 9.95797 21.4364 9.95797C21.5693 9.95797 21.6967 9.90516 21.7907 9.81117L22.6768 8.92465L22.6768 8.92461C22.8882 8.71314 23.0069 8.42641 23.0069 8.12745C23.0069 7.82848 22.8882 7.54175 22.6768 7.33028L22.3225 7.68434L22.6766 7.33004C22.4651 7.11871 22.1784 7 21.8794 7ZM21.7905 8.03867L21.7906 8.03861L21.9682 8.21636L21.9681 8.2164L21.4364 8.74842L21.2586 8.57059L21.7905 8.03872L21.7905 8.03867ZM19.5785 9.5387C19.4845 9.44468 19.357 9.3919 19.224 9.39197C19.0911 9.39205 18.9636 9.44497 18.8697 9.53909L8.04429 20.3887C8.00744 20.4256 7.97659 20.4681 7.95285 20.5145L7.05441 22.2724C6.95553 22.4658 6.99263 22.701 7.14626 22.8546C7.2999 23.0082 7.53505 23.0453 7.7285 22.9464L9.48592 22.0479C9.53235 22.0242 9.57479 21.9934 9.61171 21.9565L20.4617 11.1311C20.5558 11.0372 20.6088 10.9098 20.6088 10.7768C20.6089 10.6438 20.5561 10.5163 20.4621 10.4223L19.5785 9.5387ZM8.80914 21.0406L19.2247 10.6018L19.399 10.7761L8.95979 21.1917L8.65132 21.3494L8.80914 21.0406Z" fill="#333333"/>
</svg>
