<svg width="16" height="16" viewBox="0 0 16 16" fill="none" xmlns="http://www.w3.org/2000/svg">
<path d="M9.5 10.4995V11.7495C9.5 12.081 9.3683 12.399 9.13388 12.6334C8.89946 12.8678 8.58152 12.9995 8.25 12.9995H3.25C2.91848 12.9995 2.60054 12.8678 2.36612 12.6334C2.1317 12.399 2 12.081 2 11.7495V4.24951C2 3.91799 2.1317 3.60005 2.36612 3.36563C2.60054 3.13121 2.91848 2.99951 3.25 2.99951H8C8.69031 2.99951 9.5 3.5592 9.5 4.24951V5.49951" stroke="#828282" stroke-width="1.00189" stroke-linecap="round" stroke-linejoin="round"/>
<path d="M11.5 10.5007L14.0004 8.00036L11.5 5.5" stroke="#828282" stroke-width="1.00189" stroke-linecap="round" stroke-linejoin="round"/>
<path d="M5.5 8H13.5" stroke="#828282" stroke-width="1.00189" stroke-linecap="round" stroke-linejoin="round"/>
</svg>
