<svg width="14" height="14" viewBox="0 0 14 14" fill="none" xmlns="http://www.w3.org/2000/svg">
<path d="M12.075 4.6921L7.29723 2.33397C7.20478 2.28837 7.10308 2.26465 7 2.26465C6.89692 2.26465 6.79522 2.28837 6.70278 2.33397L1.925 4.6921C1.74184 4.78184 1.58742 4.92102 1.47918 5.0939C1.37095 5.26679 1.31321 5.46649 1.3125 5.67046V10.7184C1.3125 11.3224 1.80852 11.8121 2.42047 11.8121H11.5806C12.1926 11.8121 12.6886 11.3224 12.6886 10.7184V5.67046C12.6878 5.46638 12.6299 5.26659 12.5215 5.09369C12.413 4.9208 12.2584 4.78169 12.075 4.6921V4.6921Z" stroke="#828282" stroke-width="1.00189" stroke-linecap="round" stroke-linejoin="round"/>
<path d="M10.8652 10.0617L7.33078 7.31256C7.21559 7.22296 7.07381 7.17432 6.92787 7.17432C6.78193 7.17432 6.64016 7.22296 6.52496 7.31256L2.99023 10.0617" stroke="#828282" stroke-width="1.00189" stroke-linecap="round" stroke-linejoin="round"/>
<path d="M8.45898 8.06632L12.1783 5.24951" stroke="#828282" stroke-width="1.00189" stroke-linecap="round" stroke-linejoin="round"/>
<path d="M1.67773 5.24951L5.47906 8.12102" stroke="#828282" stroke-width="1.00189" stroke-linecap="round" stroke-linejoin="round"/>
</svg>
