<svg width="14" height="14" viewBox="0 0 14 14" fill="none" xmlns="http://www.w3.org/2000/svg">
<path d="M10.5 6.125V11.1563C10.5 11.2999 10.4717 11.4421 10.4167 11.5748C10.3618 11.7075 10.2812 11.8281 10.1796 11.9296C10.0781 12.0312 9.95751 12.1118 9.82481 12.1667C9.69211 12.2217 9.54988 12.25 9.40625 12.25H2.84375C2.55367 12.25 2.27547 12.1348 2.07035 11.9296C1.86523 11.7245 1.75 11.4463 1.75 11.1563V4.59375C1.75 4.30367 1.86523 4.02547 2.07035 3.82035C2.27547 3.61523 2.55367 3.5 2.84375 3.5H7.42328" stroke="#828282" stroke-width="1.00189" stroke-linecap="round" stroke-linejoin="round"/>
<path d="M12.5812 1.45675C12.5411 1.41264 12.4924 1.37712 12.4382 1.35235C12.3839 1.32758 12.3252 1.31407 12.2655 1.31263C12.2059 1.31119 12.1466 1.32186 12.0912 1.34398C12.0358 1.36611 11.9855 1.39924 11.9433 1.44137L11.6034 1.77959C11.5622 1.82081 11.5391 1.8767 11.5391 1.93497C11.5391 1.99324 11.5622 2.04912 11.6034 2.09034L11.915 2.40136C11.9354 2.42188 11.9597 2.43816 11.9864 2.44928C12.0131 2.46039 12.0418 2.4661 12.0707 2.4661C12.0997 2.4661 12.1284 2.46039 12.1551 2.44928C12.1818 2.43816 12.2061 2.42188 12.2265 2.40136L12.5579 2.07166C12.7255 1.90433 12.7412 1.63177 12.5812 1.45675Z" fill="#828282"/>
<path d="M10.9202 2.461L5.98344 7.38905C5.9535 7.41886 5.93175 7.45588 5.92026 7.49653L5.69191 8.17666C5.68644 8.19512 5.68605 8.21471 5.69079 8.23337C5.69552 8.25202 5.70521 8.26905 5.71882 8.28266C5.73243 8.29628 5.74946 8.30596 5.76812 8.3107C5.78678 8.31543 5.80636 8.31504 5.82482 8.30957L6.50441 8.08122C6.54506 8.06974 6.58207 8.04798 6.61188 8.01805L11.5399 3.0807C11.5855 3.03462 11.6111 2.97242 11.6111 2.90759C11.6111 2.84277 11.5855 2.78056 11.5399 2.73448L11.2678 2.461C11.2217 2.415 11.1592 2.38916 11.094 2.38916C11.0289 2.38916 10.9664 2.415 10.9202 2.461Z" fill="#828282"/>
</svg>
