<svg width="250" height="250" viewBox="0 0 250 250" fill="none" xmlns="http://www.w3.org/2000/svg">
<path fill-rule="evenodd" clip-rule="evenodd" d="M125 250C194.036 250 250 194.036 250 125C250 55.9644 194.036 0 125 0C55.9644 0 0 55.9644 0 125C0 194.036 55.9644 250 125 250ZM125 225C180.228 225 225 180.228 225 125C225 69.7715 180.228 25 125 25C69.7715 25 25 69.7715 25 125C25 180.228 69.7715 225 125 225Z" fill="#333333"/>
<path d="M133.742 70.9091L132.358 148.626H117.603L116.218 70.9091H133.742ZM125.007 181.012C122.059 181.012 119.538 179.982 117.443 177.923C115.348 175.827 114.318 173.306 114.353 170.359C114.318 167.447 115.348 164.961 117.443 162.901C119.538 160.806 122.059 159.759 125.007 159.759C127.883 159.759 130.369 160.806 132.464 162.901C134.559 164.961 135.625 167.447 135.66 170.359C135.625 172.312 135.11 174.105 134.115 175.739C133.157 177.337 131.878 178.615 130.28 179.574C128.682 180.533 126.924 181.012 125.007 181.012Z" fill="#333333"/>
</svg>
