<svg width="12" height="12" viewBox="0 0 12 12" fill="none" xmlns="http://www.w3.org/2000/svg">
<path d="M6.00083 7.12666C6.6226 7.12666 7.12666 6.6226 7.12666 6.00083C7.12666 5.37905 6.6226 4.875 6.00083 4.875C5.37905 4.875 4.875 5.37905 4.875 6.00083C4.875 6.6226 5.37905 7.12666 6.00083 7.12666Z" fill="#828282"/>
<path d="M6.00083 10.8767C6.6226 10.8767 7.12666 10.3726 7.12666 9.75083C7.12666 9.12905 6.6226 8.625 6.00083 8.625C5.37905 8.625 4.875 9.12905 4.875 9.75083C4.875 10.3726 5.37905 10.8767 6.00083 10.8767Z" fill="#828282"/>
<path d="M6.00083 3.37666C6.6226 3.37666 7.12666 2.8726 7.12666 2.25083C7.12666 1.62905 6.6226 1.125 6.00083 1.125C5.37905 1.125 4.875 1.62905 4.875 2.25083C4.875 2.8726 5.37905 3.37666 6.00083 3.37666Z" fill="#828282"/>
</svg>
