<svg width="24" height="24" viewBox="0 0 24 24" fill="none" xmlns="http://www.w3.org/2000/svg">
<path d="M19.5 3.75H4.5C3.25736 3.75 2.25 4.75736 2.25 6V19.5C2.25 20.7426 3.25736 21.75 4.5 21.75H19.5C20.7426 21.75 21.75 20.7426 21.75 19.5V6C21.75 4.75736 20.7426 3.75 19.5 3.75Z" stroke="#333333" stroke-width="1.5" stroke-linejoin="round"/>
<path d="M13.8814 12.0108C14.5057 12.0108 15.0118 11.5047 15.0118 10.8804C15.0118 10.2561 14.5057 9.75 13.8814 9.75C13.2571 9.75 12.751 10.2561 12.751 10.8804C12.751 11.5047 13.2571 12.0108 13.8814 12.0108Z" fill="#333333"/>
<path d="M17.6294 12.0108C18.2538 12.0108 18.7599 11.5047 18.7599 10.8804C18.7599 10.2561 18.2538 9.75 17.6294 9.75C17.0051 9.75 16.499 10.2561 16.499 10.8804C16.499 11.5047 17.0051 12.0108 17.6294 12.0108Z" fill="#333333"/>
<path d="M13.8814 15.7608C14.5057 15.7608 15.0118 15.2547 15.0118 14.6304C15.0118 14.0061 14.5057 13.5 13.8814 13.5C13.2571 13.5 12.751 14.0061 12.751 14.6304C12.751 15.2547 13.2571 15.7608 13.8814 15.7608Z" fill="#333333"/>
<path d="M17.6294 15.7608C18.2538 15.7608 18.7599 15.2547 18.7599 14.6304C18.7599 14.0061 18.2538 13.5 17.6294 13.5C17.0051 13.5 16.499 14.0061 16.499 14.6304C16.499 15.2547 17.0051 15.7608 17.6294 15.7608Z" fill="#333333"/>
<path d="M6.3814 15.7608C7.00571 15.7608 7.51182 15.2547 7.51182 14.6304C7.51182 14.0061 7.00571 13.5 6.3814 13.5C5.75708 13.5 5.25098 14.0061 5.25098 14.6304C5.25098 15.2547 5.75708 15.7608 6.3814 15.7608Z" fill="#333333"/>
<path d="M10.1294 15.7608C10.7538 15.7608 11.2599 15.2547 11.2599 14.6304C11.2599 14.0061 10.7538 13.5 10.1294 13.5C9.50513 13.5 8.99902 14.0061 8.99902 14.6304C8.99902 15.2547 9.50513 15.7608 10.1294 15.7608Z" fill="#333333"/>
<path d="M6.3814 19.5108C7.00571 19.5108 7.51182 19.0047 7.51182 18.3804C7.51182 17.7561 7.00571 17.25 6.3814 17.25C5.75708 17.25 5.25098 17.7561 5.25098 18.3804C5.25098 19.0047 5.75708 19.5108 6.3814 19.5108Z" fill="#333333"/>
<path d="M10.1294 19.5108C10.7538 19.5108 11.2599 19.0047 11.2599 18.3804C11.2599 17.7561 10.7538 17.25 10.1294 17.25C9.50513 17.25 8.99902 17.7561 8.99902 18.3804C8.99902 19.0047 9.50513 19.5108 10.1294 19.5108Z" fill="#333333"/>
<path d="M13.8814 19.5108C14.5057 19.5108 15.0118 19.0047 15.0118 18.3804C15.0118 17.7561 14.5057 17.25 13.8814 17.25C13.2571 17.25 12.751 17.7561 12.751 18.3804C12.751 19.0047 13.2571 19.5108 13.8814 19.5108Z" fill="#333333"/>
<path d="M6 2.25V3.76349" stroke="#333333" stroke-width="1.5" stroke-linecap="round" stroke-linejoin="round"/>
<path d="M18 2.25V3.76349" stroke="#333333" stroke-width="1.5" stroke-linecap="round" stroke-linejoin="round"/>
<path d="M21.75 7.5H2.25" stroke="#333333" stroke-width="1.5" stroke-linejoin="round"/>
</svg>
