<svg width="32" height="32" viewBox="0 0 32 32" fill="none" xmlns="http://www.w3.org/2000/svg">
<path d="M26 5H6C4.34315 5 3 6.34315 3 8V26C3 27.6569 4.34315 29 6 29H26C27.6569 29 29 27.6569 29 26V8C29 6.34315 27.6569 5 26 5Z" stroke="#828282" stroke-width="2" stroke-linejoin="round"/>
<path d="M18.5072 16.0145C19.3396 16.0145 20.0145 15.3396 20.0145 14.5072C20.0145 13.6748 19.3396 13 18.5072 13C17.6748 13 17 13.6748 17 14.5072C17 15.3396 17.6748 16.0145 18.5072 16.0145Z" fill="#828282"/>
<path d="M23.5053 16.0145C24.3377 16.0145 25.0125 15.3396 25.0125 14.5072C25.0125 13.6748 24.3377 13 23.5053 13C22.6729 13 21.998 13.6748 21.998 14.5072C21.998 15.3396 22.6729 16.0145 23.5053 16.0145Z" fill="#828282"/>
<path d="M18.5072 21.0145C19.3396 21.0145 20.0145 20.3396 20.0145 19.5072C20.0145 18.6748 19.3396 18 18.5072 18C17.6748 18 17 18.6748 17 19.5072C17 20.3396 17.6748 21.0145 18.5072 21.0145Z" fill="#828282"/>
<path d="M23.5053 21.0145C24.3377 21.0145 25.0125 20.3396 25.0125 19.5072C25.0125 18.6748 24.3377 18 23.5053 18C22.6729 18 21.998 18.6748 21.998 19.5072C21.998 20.3396 22.6729 21.0145 23.5053 21.0145Z" fill="#828282"/>
<path d="M8.50723 21.0145C9.33965 21.0145 10.0145 20.3396 10.0145 19.5072C10.0145 18.6748 9.33965 18 8.50723 18C7.67481 18 7 18.6748 7 19.5072C7 20.3396 7.67481 21.0145 8.50723 21.0145Z" fill="#828282"/>
<path d="M13.5072 21.0145C14.3396 21.0145 15.0145 20.3396 15.0145 19.5072C15.0145 18.6748 14.3396 18 13.5072 18C12.6748 18 12 18.6748 12 19.5072C12 20.3396 12.6748 21.0145 13.5072 21.0145Z" fill="#828282"/>
<path d="M8.50723 26.0145C9.33965 26.0145 10.0145 25.3396 10.0145 24.5072C10.0145 23.6748 9.33965 23 8.50723 23C7.67481 23 7 23.6748 7 24.5072C7 25.3396 7.67481 26.0145 8.50723 26.0145Z" fill="#828282"/>
<path d="M13.5072 26.0145C14.3396 26.0145 15.0145 25.3396 15.0145 24.5072C15.0145 23.6748 14.3396 23 13.5072 23C12.6748 23 12 23.6748 12 24.5072C12 25.3396 12.6748 26.0145 13.5072 26.0145Z" fill="#828282"/>
<path d="M18.5072 26.0145C19.3396 26.0145 20.0145 25.3396 20.0145 24.5072C20.0145 23.6748 19.3396 23 18.5072 23C17.6748 23 17 23.6748 17 24.5072C17 25.3396 17.6748 26.0145 18.5072 26.0145Z" fill="#828282"/>
<path d="M8 3V5.01799" stroke="#828282" stroke-width="2" stroke-linecap="round" stroke-linejoin="round"/>
<path d="M24 3V5.01799" stroke="#828282" stroke-width="2" stroke-linecap="round" stroke-linejoin="round"/>
<path d="M29 10H3" stroke="#828282" stroke-width="2" stroke-linejoin="round"/>
</svg>
