<svg width="24" height="24" viewBox="0 0 24 24" fill="none" xmlns="http://www.w3.org/2000/svg">
<path d="M12.5556 14C11.6667 9.2 7.74074 4 5.88889 2C6.44444 3.5 7.66667 6.9 8.11111 8.5C8.55556 10.1 8.66667 12.5 8.66667 13.5C8.22222 12.3 4.03704 9.33333 2 8C2.18519 8.66667 3.11111 10.7 5.33333 13.5L8.11111 19L12 22C12.5556 21.3333 13.4444 18.8 12.5556 14Z" stroke="white" stroke-linecap="round" stroke-linejoin="round"/>
<path d="M15.3333 9C14.4444 10.6 14.2222 13 14.2222 14C13.8519 13 13.1458 10.8 13.2847 10C13.4582 9 14.2222 7.5 15.3333 6C16.2222 4.8 17.5556 3.16667 18.1111 2.5C17.5556 4 16.2222 7.4 15.3333 9Z" stroke="white" stroke-linecap="round" stroke-linejoin="round"/>
<path d="M18.1111 16.5L15.3333 19C15.5185 17.1667 16.1111 13.1 17 11.5C17.8889 9.9 20.7037 8.5 22 8C21.2593 9 19.6667 11.3 19.2222 12.5C18.7778 13.7 18.2963 15.6667 18.1111 16.5Z" stroke="white" stroke-linecap="round" stroke-linejoin="round"/>
</svg>
