<svg width="24" height="24" viewBox="0 0 24 24" fill="none" xmlns="http://www.w3.org/2000/svg">
<path d="M9.93276 4.98988L10.3975 5.98136C10.6889 6.60297 11.3135 7 12 7C12.6865 7 13.3111 6.60297 13.6025 5.98136L14.0672 4.98989C14.5015 4.06353 13.8254 3 12.8023 3L11.1977 3C10.1746 3 9.49853 4.06353 9.93276 4.98988Z" stroke="white" stroke-linecap="round"/>
<path d="M14.6393 18.6912L13.2987 10.1115C13.1987 9.47168 12.6476 9 12 9C11.3524 9 10.8013 9.47168 10.7013 10.1115L9.36074 18.6912C9.17122 19.9042 10.1091 21 11.3368 21H12.6632C13.8909 21 14.8288 19.9042 14.6393 18.6912Z" stroke="white" stroke-linecap="round"/>
<path d="M22 6C20.6753 6.8082 14.0515 8.4246 14.0515 8.4246C14.0515 8.4246 13.4951 8.58624 16.0387 10.8492C18.5822 13.1122 20.5428 11.5227 21.2052 10.4451C20.467 9.85714 20.467 9.85714 19.6155 9.2328C21.2052 8.57143 21.8675 7.0776 22 6Z" stroke="white" stroke-linecap="round" stroke-linejoin="round"/>
<path d="M2 6C3.32474 6.8082 9.94846 8.4246 9.94846 8.4246C9.94846 8.4246 10.5049 8.58624 7.96135 10.8492C5.41784 13.1122 3.45722 11.5227 2.79485 10.4451C3.533 9.85714 3.533 9.85714 4.38454 9.2328C2.79485 8.57143 2.13247 7.0776 2 6Z" stroke="white" stroke-linecap="round" stroke-linejoin="round"/>
</svg>
