<svg width="20" height="21" viewBox="0 0 20 21" fill="none" xmlns="http://www.w3.org/2000/svg">
<path d="M4.41101 5.50009C3.1982 6.85464 2.51918 8.6039 2.50046 10.422C2.45437 14.5763 5.84617 17.9923 10.0005 18.0001C14.1489 18.0079 17.5005 14.6474 17.5005 10.5001C17.5005 6.4165 14.2368 3.09345 10.1762 3.00009C10.1534 2.99935 10.1306 3.00323 10.1093 3.01148C10.088 3.01974 10.0685 3.0322 10.0521 3.04813C10.0357 3.06406 10.0227 3.08313 10.0138 3.10421C10.0049 3.12528 10.0004 3.14792 10.0005 3.17079V6.43759" stroke="white" stroke-width="1.00189" stroke-linecap="round" stroke-linejoin="round"/>
<path d="M9.11621 11.3848L6.02984 6.97013C5.98714 6.90897 5.96733 6.83472 5.97389 6.76042C5.98044 6.68611 6.01294 6.61648 6.06569 6.56373C6.11843 6.51099 6.18806 6.47849 6.26237 6.47193C6.33668 6.46538 6.41092 6.48518 6.47209 6.52788L10.8868 9.61426C11.1576 9.80928 11.3407 10.1031 11.3965 10.4321C11.4524 10.7611 11.3765 11.0988 11.1852 11.3723C10.994 11.6457 10.7027 11.8329 10.3745 11.8933C10.0464 11.9537 9.70757 11.8825 9.43149 11.695C9.30942 11.6104 9.20278 11.5055 9.11621 11.3848Z" fill="white"/>
</svg>
