<svg width="32" height="32" viewBox="0 0 32 32" fill="none" xmlns="http://www.w3.org/2000/svg">
<path d="M12.8617 4H5.13612C4.50866 4 4 4.50866 4 5.13612V12.8617C4 13.4892 4.50866 13.9978 5.13612 13.9978H12.8617C13.4892 13.9978 13.9978 13.4892 13.9978 12.8617V5.13612C13.9978 4.50866 13.4892 4 12.8617 4Z" stroke="#8A1F21" stroke-width="2" stroke-linecap="round" stroke-linejoin="round"/>
<path d="M12.8617 17.9961H5.13612C4.50866 17.9961 4 18.5048 4 19.1322V26.8578C4 27.4853 4.50866 27.9939 5.13612 27.9939H12.8617C13.4892 27.9939 13.9978 27.4853 13.9978 26.8578V19.1322C13.9978 18.5048 13.4892 17.9961 12.8617 17.9961Z" stroke="#8A1F21" stroke-width="2" stroke-linecap="round" stroke-linejoin="round"/>
<path d="M17.9961 11.9961H27.9939" stroke="#8A1F21" stroke-width="2" stroke-linecap="round" stroke-linejoin="round"/>
<path d="M17.9961 5.99805H27.9939" stroke="#8A1F21" stroke-width="2" stroke-linecap="round" stroke-linejoin="round"/>
<path d="M17.9961 25.9941H27.9939" stroke="#8A1F21" stroke-width="2" stroke-linecap="round" stroke-linejoin="round"/>
<path d="M17.9961 19.9961H27.9939" stroke="#8A1F21" stroke-width="2" stroke-linecap="round" stroke-linejoin="round"/>
</svg>
