<svg width="30" height="30" viewBox="0 0 30 30" fill="none" xmlns="http://www.w3.org/2000/svg">
    <path d="M25.3125 5.625H19.6875V4.21875C19.6875 3.59715 19.4406 3.00101 19.001 2.56147C18.5615 2.12193 17.9654 1.875 17.3438 1.875H12.6563C12.0346 1.875 11.4385 2.12193 10.999 2.56147C10.5594 3.00101 10.3125 3.59715 10.3125 4.21875V5.625H4.6875C4.43886 5.625 4.2004 5.72377 4.02459 5.89959C3.84877 6.0754 3.75 6.31386 3.75 6.5625C3.75 6.81114 3.84877 7.0496 4.02459 7.22541C4.2004 7.40123 4.43886 7.5 4.6875 7.5H5.68359L6.79688 25.3664C6.88008 26.9396 8.08594 28.125 9.60938 28.125H20.3906C21.9217 28.125 23.1035 26.966 23.2031 25.3711L24.3164 7.5H25.3125C25.5611 7.5 25.7996 7.40123 25.9754 7.22541C26.1512 7.0496 26.25 6.81114 26.25 6.5625C26.25 6.31386 26.1512 6.0754 25.9754 5.89959C25.7996 5.72377 25.5611 5.625 25.3125 5.625ZM11.2834 24.375H11.25C11.007 24.3752 10.7735 24.281 10.5986 24.1123C10.4237 23.9437 10.3212 23.7137 10.3125 23.4709L9.84375 10.3459C9.83489 10.0973 9.92517 9.85528 10.0947 9.6732C10.2643 9.49112 10.4992 9.38386 10.7479 9.375C10.9965 9.36614 11.2385 9.45642 11.4205 9.62597C11.6026 9.79552 11.7099 10.0305 11.7188 10.2791L12.1875 23.4041C12.192 23.5272 12.1721 23.65 12.1291 23.7655C12.086 23.881 12.0207 23.9868 11.9367 24.077C11.8527 24.1671 11.7518 24.2399 11.6397 24.291C11.5276 24.3422 11.4065 24.3707 11.2834 24.375ZM15.9375 23.4375C15.9375 23.6861 15.8387 23.9246 15.6629 24.1004C15.4871 24.2762 15.2486 24.375 15 24.375C14.7514 24.375 14.5129 24.2762 14.3371 24.1004C14.1613 23.9246 14.0625 23.6861 14.0625 23.4375V10.3125C14.0625 10.0639 14.1613 9.8254 14.3371 9.64959C14.5129 9.47377 14.7514 9.375 15 9.375C15.2486 9.375 15.4871 9.47377 15.6629 9.64959C15.8387 9.8254 15.9375 10.0639 15.9375 10.3125V23.4375ZM17.8125 5.625H12.1875V4.21875C12.1868 4.157 12.1984 4.09572 12.2217 4.03853C12.245 3.98134 12.2796 3.92939 12.3232 3.88572C12.3669 3.84205 12.4188 3.80755 12.476 3.78424C12.5332 3.76094 12.5945 3.74929 12.6563 3.75H17.3438C17.4055 3.74929 17.4668 3.76094 17.524 3.78424C17.5812 3.80755 17.6331 3.84205 17.6768 3.88572C17.7205 3.92939 17.755 3.98134 17.7783 4.03853C17.8016 4.09572 17.8132 4.157 17.8125 4.21875V5.625ZM19.6875 23.4709C19.6788 23.7137 19.5763 23.9437 19.4014 24.1123C19.2265 24.281 18.993 24.3752 18.75 24.375H18.716C18.5929 24.3706 18.4719 24.342 18.3599 24.2908C18.2478 24.2397 18.147 24.1669 18.0631 24.0768C17.9792 23.9866 17.9139 23.8808 17.8709 23.7654C17.8279 23.6499 17.808 23.5272 17.8125 23.4041L18.2813 10.2791C18.2856 10.156 18.3142 10.0349 18.3654 9.92288C18.4166 9.81081 18.4893 9.70992 18.5795 9.62597C18.6696 9.54202 18.7754 9.47664 18.8908 9.43358C19.0063 9.39052 19.129 9.37061 19.2521 9.375C19.3753 9.37939 19.4963 9.40798 19.6084 9.45914C19.7204 9.51031 19.8213 9.58305 19.9053 9.6732C19.9892 9.76336 20.0546 9.86917 20.0977 9.98459C20.1407 10.1 20.1606 10.2228 20.1563 10.3459L19.6875 23.4709Z"
          fill="black"/>
</svg>
