<svg width="32" height="32" viewBox="0 0 32 32" fill="none" xmlns="http://www.w3.org/2000/svg">
<path d="M27.5058 21.332C27.402 21.207 27.3002 21.082 27.2002 20.9613C25.8252 19.2982 24.9933 18.2945 24.9933 13.5863C24.9933 11.1488 24.4102 9.14883 23.2608 7.64883C22.4133 6.5407 21.2677 5.70008 19.7577 5.07883C19.7382 5.06802 19.7209 5.05384 19.7064 5.03695C19.1633 3.2182 17.677 2.00008 16.0008 2.00008C14.3245 2.00008 12.8389 3.2182 12.2958 5.03508C12.2813 5.05134 12.2642 5.06507 12.2452 5.0757C8.72142 6.52633 7.00892 9.30946 7.00892 13.5845C7.00892 18.2945 6.17829 19.2982 4.80204 20.9595C4.70204 21.0801 4.60017 21.2026 4.49642 21.3301C4.22842 21.6533 4.05862 22.0465 4.00711 22.4632C3.95561 22.8799 4.02456 23.3026 4.20579 23.6813C4.59142 24.4938 5.41329 24.9982 6.35142 24.9982H25.657C26.5908 24.9982 27.407 24.4945 27.7939 23.6857C27.9759 23.3069 28.0455 22.8838 27.9945 22.4667C27.9434 22.0495 27.7738 21.6557 27.5058 21.332V21.332Z" fill="#8A1F21"/>
<path d="M16.0007 30.0009C16.904 30.0002 17.7903 29.755 18.5655 29.2914C19.3407 28.8277 19.9759 28.1629 20.4039 27.3674C20.424 27.3293 20.434 27.2866 20.4328 27.2435C20.4316 27.2004 20.4192 27.1583 20.3969 27.1214C20.3747 27.0845 20.3432 27.0539 20.3057 27.0328C20.2681 27.0116 20.2257 27.0005 20.1826 27.0005H11.8201C11.777 27.0004 11.7345 27.0114 11.6968 27.0325C11.6592 27.0537 11.6277 27.0842 11.6053 27.1211C11.583 27.1581 11.5706 27.2002 11.5693 27.2434C11.5681 27.2865 11.578 27.3293 11.5982 27.3674C12.0261 28.1628 12.6613 28.8276 13.4364 29.2912C14.2115 29.7548 15.0976 30.0001 16.0007 30.0009Z" fill="#8A1F21"/>
</svg>
