<svg width="16" height="17" viewBox="0 0 16 17" fill="none" xmlns="http://www.w3.org/2000/svg">
<path d="M10.9549 5.14661L10.1229 3.83195C9.9475 3.62753 9.70714 3.5 9.4377 3.5H6.56208C6.29264 3.5 6.05228 3.62753 5.87693 3.83195L5.04487 5.14661C4.86952 5.35134 4.64353 5.50044 4.3741 5.50044H2.49869C2.23342 5.50044 1.97901 5.60582 1.79143 5.79339C1.60385 5.98097 1.49847 6.23538 1.49847 6.50065V12.502C1.49847 12.7672 1.60385 13.0216 1.79143 13.2092C1.97901 13.3968 2.23342 13.5022 2.49869 13.5022H13.5011C13.7664 13.5022 14.0208 13.3968 14.2083 13.2092C14.3959 13.0216 14.5013 12.7672 14.5013 12.502V6.50065C14.5013 6.23538 14.3959 5.98097 14.2083 5.79339C14.0208 5.60582 13.7664 5.50044 13.5011 5.50044H11.6569C11.3866 5.50044 11.1303 5.35134 10.9549 5.14661Z" stroke="#333333" stroke-width="1.00189" stroke-linecap="round" stroke-linejoin="round"/>
<path d="M8.00035 11.5028C9.38156 11.5028 10.5013 10.3831 10.5013 9.00188C10.5013 7.62067 9.38156 6.50098 8.00035 6.50098C6.61914 6.50098 5.49945 7.62067 5.49945 9.00188C5.49945 10.3831 6.61914 11.5028 8.00035 11.5028Z" stroke="#333333" stroke-width="1.00189" stroke-miterlimit="10"/>
<path d="M3.88071 5.44352V4.75H3.12415V5.44352" stroke="#333333" stroke-width="1.00189" stroke-linecap="round" stroke-linejoin="round"/>
</svg>
