<svg width="32" height="32" viewBox="0 0 32 32" fill="none" xmlns="http://www.w3.org/2000/svg">
<path d="M16.3484 6.32923C16.2554 6.24022 16.1316 6.19054 16.0028 6.19054C15.874 6.19054 15.7502 6.24022 15.6572 6.32923L4.15094 17.3211C4.10207 17.3678 4.0632 17.424 4.03666 17.4862C4.01013 17.5484 3.99649 17.6154 3.99656 17.683L3.99469 27.9992C3.99469 28.5297 4.2054 29.0384 4.58048 29.4134C4.95555 29.7885 5.46426 29.9992 5.99469 29.9992H12.0009C12.2662 29.9992 12.5205 29.8939 12.708 29.7063C12.8956 29.5188 13.0009 29.2644 13.0009 28.9992V20.4992C13.0009 20.3666 13.0536 20.2394 13.1474 20.1457C13.2412 20.0519 13.3683 19.9992 13.5009 19.9992H18.5009C18.6335 19.9992 18.7607 20.0519 18.8545 20.1457C18.9483 20.2394 19.0009 20.3666 19.0009 20.4992V28.9992C19.0009 29.2644 19.1063 29.5188 19.2938 29.7063C19.4814 29.8939 19.7357 29.9992 20.0009 29.9992H26.0047C26.5351 29.9992 27.0438 29.7885 27.4189 29.4134C27.794 29.0384 28.0047 28.5297 28.0047 27.9992V17.683C28.0048 17.6154 27.9911 17.5484 27.9646 17.4862C27.9381 17.424 27.8992 17.3678 27.8503 17.3211L16.3484 6.32923Z" fill="#8A1F21"/>
<path d="M30.6816 15.2594L26.0066 10.7869V3.99999C26.0066 3.73477 25.9012 3.48041 25.7137 3.29288C25.5262 3.10534 25.2718 2.99998 25.0066 2.99998H22.0066C21.7414 2.99998 21.487 3.10534 21.2995 3.29288C21.112 3.48041 21.0066 3.73477 21.0066 3.99999V5.99999L17.3866 2.53873C17.0478 2.19623 16.5441 1.99998 15.9997 1.99998C15.4572 1.99998 14.9547 2.19623 14.616 2.53936L1.32222 15.2581C0.933468 15.6331 0.884718 16.25 1.23847 16.6562C1.3273 16.7588 1.43607 16.8422 1.55816 16.9013C1.68024 16.9605 1.81309 16.9942 1.94862 17.0004C2.08415 17.0066 2.21952 16.9852 2.3465 16.9374C2.47347 16.8896 2.5894 16.8165 2.68722 16.7225L15.656 4.32999C15.749 4.24097 15.8728 4.19129 16.0016 4.19129C16.1304 4.19129 16.2542 4.24097 16.3472 4.32999L29.3172 16.7225C29.5083 16.9057 29.7642 17.0057 30.0288 17.0005C30.2935 16.9954 30.5453 16.8855 30.7291 16.695C31.1129 16.2975 31.081 15.6412 30.6816 15.2594Z" fill="#8A1F21"/>
</svg>
