<svg width="32" height="32" viewBox="0 0 32 32" fill="none" xmlns="http://www.w3.org/2000/svg">
<path d="M20.7891 4.03715C19.5729 2.72403 17.8741 2.0009 15.9991 2.0009C14.1141 2.0009 12.4097 2.71965 11.1991 4.02465C9.97536 5.34403 9.37911 7.13715 9.51911 9.0734C9.79661 12.8934 12.7035 16.0009 15.9991 16.0009C19.2947 16.0009 22.1966 12.894 22.4785 9.07465C22.6204 7.1559 22.0204 5.36653 20.7891 4.03715Z" fill="#8A1F21"/>
<path d="M26.9997 30.0002H4.99967C4.71171 30.004 4.42654 29.9435 4.1649 29.8232C3.90326 29.7028 3.67174 29.5257 3.48717 29.3046C3.08092 28.819 2.91717 28.1559 3.03842 27.4852C3.56592 24.559 5.21217 22.1009 7.79967 20.3752C10.0984 18.8434 13.0103 18.0002 15.9997 18.0002C18.989 18.0002 21.9009 18.844 24.1997 20.3752C26.7872 22.1002 28.4334 24.5584 28.9609 27.4846C29.0822 28.1552 28.9184 28.8184 28.5122 29.304C28.3277 29.5252 28.0962 29.7024 27.8345 29.8229C27.5729 29.9433 27.2877 30.0039 26.9997 30.0002Z" fill="#8A1F21"/>
</svg>
