<svg width="21" height="21" viewBox="0 0 21 21" fill="none" xmlns="http://www.w3.org/2000/svg">
<g clip-path="url(#clip0_863_50)">
<path d="M10.9732 2.6049L6.14256 3.89928C5.34219 4.11374 4.86721 4.93642 5.08167 5.73679L8.18818 17.3304C8.40264 18.1308 9.22532 18.6058 10.0257 18.3913L14.8564 17.0969C15.6567 16.8825 16.1317 16.0598 15.9173 15.2594L12.8108 3.66579C12.5963 2.86542 11.7736 2.39044 10.9732 2.6049Z" stroke="white" stroke-width="1.00189" stroke-linecap="round" stroke-linejoin="round"/>
<path d="M6.14246 3.89929L6.86716 3.70511C6.93123 3.68794 6.99949 3.69693 7.05694 3.73009C7.11438 3.76326 7.15629 3.81788 7.17346 3.88195C7.20779 4.01008 7.29162 4.11933 7.40651 4.18566C7.52139 4.25199 7.65792 4.26996 7.78605 4.23563L9.7186 3.7178C9.84674 3.68347 9.95599 3.59964 10.0223 3.48476C10.0886 3.36987 10.1066 3.23335 10.0723 3.10521C10.0551 3.04114 10.0641 2.97288 10.0973 2.91544C10.1304 2.858 10.1851 2.81608 10.2491 2.79891L10.9738 2.60473" stroke="white" stroke-width="1.00189" stroke-linecap="round" stroke-linejoin="round"/>
</g>
<defs>
<clipPath id="clip0_863_50">
<rect width="16.0035" height="16.0035" fill="white" transform="translate(0.699829 4.84191) rotate(-15)"/>
</clipPath>
</defs>
</svg>
