<svg width="46" height="47" viewBox="0 0 46 47" fill="none" xmlns="http://www.w3.org/2000/svg">
    <g opacity="0.6">
        <foreignObject x="-5.25195" y="-6" width="54.6406" height="58.4531">
            <div xmlns="http://www.w3.org/1999/xhtml" style="backdrop-filter:blur(5px);clip-path:url(#bgblur_0_5623_28320_clip_path);height:100%;width:100%"></div>
        </foreignObject>
        <g filter="url(#filter0_d_5623_28320)" data-figma-bg-blur-radius="10">
            <path d="M19.5684 4.66994C21.1154 3.77677 23.0214 3.77677 24.5684 4.66994L36.8889 11.7832C38.4359 12.6764 39.3889 14.327 39.3889 16.1133V30.3398C39.3889 32.1261 38.4359 33.7768 36.8889 34.6699L24.5684 41.7832C23.0214 42.6763 21.1154 42.6763 19.5684 41.7832L7.24785 34.6699C5.70084 33.7768 4.74785 32.1261 4.74785 30.3398V16.1133C4.74785 14.327 5.70085 12.6764 7.24785 11.7832L19.5684 4.66994Z" fill="#E20A29" fill-opacity="0.8" shape-rendering="crispEdges"/>
        </g>
    </g>
    <defs>
        <filter id="filter0_d_5623_28320" x="-5.25195" y="-6" width="54.6406" height="58.4531" filterUnits="userSpaceOnUse" color-interpolation-filters="sRGB">
            <feFlood flood-opacity="0" result="BackgroundImageFix"/>
            <feColorMatrix in="SourceAlpha" type="matrix" values="0 0 0 0 0 0 0 0 0 0 0 0 0 0 0 0 0 0 127 0" result="hardAlpha"/>
            <feOffset/>
            <feGaussianBlur stdDeviation="2"/>
            <feComposite in2="hardAlpha" operator="out"/>
            <feColorMatrix type="matrix" values="0 0 0 0 0 0 0 0 0 0 0 0 0 0 0 0 0 0 0.04 0"/>
            <feBlend mode="normal" in2="BackgroundImageFix" result="effect1_dropShadow_5623_28320"/>
            <feBlend mode="normal" in="SourceGraphic" in2="effect1_dropShadow_5623_28320" result="shape"/>
        </filter>
        <clipPath id="bgblur_0_5623_28320_clip_path" transform="translate(5.25195 6)">
            <path d="M19.5684 4.66994C21.1154 3.77677 23.0214 3.77677 24.5684 4.66994L36.8889 11.7832C38.4359 12.6764 39.3889 14.327 39.3889 16.1133V30.3398C39.3889 32.1261 38.4359 33.7768 36.8889 34.6699L24.5684 41.7832C23.0214 42.6763 21.1154 42.6763 19.5684 41.7832L7.24785 34.6699C5.70084 33.7768 4.74785 32.1261 4.74785 30.3398V16.1133C4.74785 14.327 5.70085 12.6764 7.24785 11.7832L19.5684 4.66994Z"/>
        </clipPath>
    </defs>
</svg>